<?xml version="1.0" standalone="no"?>
<!DOCTYPE svg PUBLIC "-//W3C//DTD SVG 20010904//EN"
 "http://www.w3.org/TR/2001/REC-SVG-20010904/DTD/svg10.dtd">
<svg version="1.0" xmlns="http://www.w3.org/2000/svg"
 width="1024.000000pt" height="1024.000000pt" viewBox="0 0 1024.000000 1024.000000"
 preserveAspectRatio="xMidYMid meet">

<g transform="translate(0.000000,1024.000000) scale(0.100000,-0.100000)"
fill="#000000" stroke="none">
<path d="M6469 8320 c-272 -46 -572 -215 -824 -465 -298 -294 -501 -682 -780
-1490 -53 -154 -146 -422 -205 -595 -107 -310 -305 -877 -340 -975 -22 -62
-152 -400 -215 -560 -26 -66 -89 -210 -140 -320 -51 -110 -98 -217 -104 -238
l-13 -38 -86 8 c-140 13 -367 7 -466 -11 -316 -60 -534 -200 -634 -406 -51
-105 -67 -191 -52 -287 38 -245 248 -380 538 -343 295 37 585 189 868 453 l90
85 160 -80 c213 -106 352 -180 579 -308 298 -167 650 -345 761 -383 270 -94
572 -117 814 -61 345 78 659 305 868 628 167 258 250 575 196 755 -21 73 -76
130 -129 138 l-40 5 -12 -75 c-28 -177 -130 -355 -286 -503 -105 -99 -202
-160 -336 -210 -140 -53 -235 -68 -411 -68 -259 0 -451 46 -1015 244 -176 62
-435 152 -576 199 l-256 87 55 75 c237 323 573 1035 793 1680 l33 96 66 28
c236 101 591 299 786 440 271 195 583 481 738 675 190 240 346 548 413 818 37
147 39 346 5 467 -42 147 -94 239 -191 335 -144 144 -307 211 -511 209 -52 -1
-116 -5 -141 -9z m356 -300 c55 -24 118 -95 145 -166 32 -83 38 -238 15 -376
-56 -334 -249 -689 -584 -1070 -188 -214 -392 -384 -650 -542 -99 -61 -331
-179 -338 -172 -7 6 148 443 269 761 232 609 417 1012 577 1255 66 101 218
258 281 291 95 49 201 56 285 19z m-3237 -4691 c23 -6 42 -15 42 -19 0 -12
-125 -155 -198 -225 -128 -125 -286 -215 -379 -215 -95 0 -163 72 -163 173 0
200 198 313 530 302 69 -2 144 -9 168 -16z"/>
</g>
</svg>
